<?xml version="1.0" encoding="UTF-8"?>
<svg id="Camada_1" data-name="Camada 1" xmlns="http://www.w3.org/2000/svg" xmlns:xlink="http://www.w3.org/1999/xlink" viewBox="0 0 1384 911">
  <defs>
    <style>
      .cls-1 {
        mask: url(#mask-1);
      }

      .cls-2 {
        fill: #fff;
      }

      .cls-3 {
        mask: url(#mask);
      }

      .cls-4 {
        fill: none;
      }

      .cls-5 {
        fill: #ffffff;
      }

      .cls-6 {
        fill: #aaaaaa;
      }

      .cls-7 {
        clip-path: url(#clippath);
      }
    </style>
    <clipPath id="clippath">
      <rect class="cls-4" x="588.19" y="68.25" width="207.61" height="447.56"/>
    </clipPath>
    <mask id="mask" x="591.58" y="68.26" width="204.16" height="447.57" maskUnits="userSpaceOnUse">
      <g id="mask0_2436_881" data-name="mask0 2436 881">
        <path class="cls-2" d="M795.74,68.26h-103.79v447.56h103.79V68.26Z"/>
      </g>
    </mask>
    <mask id="mask-1" x="588.18" y="68.26" width="204.18" height="447.57" maskUnits="userSpaceOnUse">
      <g id="mask1_2436_881" data-name="mask1 2436 881">
        <path class="cls-2" d="M588.18,68.26h103.79v447.56h-103.79V68.26Z"/>
      </g>
    </mask>
  </defs>
  <g class="cls-7">
    <g>
      <g class="cls-3">
        <g>
          <path class="cls-6" d="M767.28,441.78h-147.61c0,15.53-12.6,28.1-28.09,28.1h203.78c-15.48,0-28.08-12.57-28.08-28.1Z"/>
          <path class="cls-6" d="M788.2,490.33h-189.42v25.51h189.42v-25.51Z"/>
          <path class="cls-6" d="M773.81,436.68c0,1.28-.49,2.62-1.52,3.6-.98.98-2.29,1.48-3.6,1.48h-150.39c-1.3,0-2.62-.51-3.59-1.48-1.04-.99-1.54-2.32-1.54-3.6s.5-2.62,1.54-3.62c.97-1,2.28-1.49,3.59-1.49h150.39c1.3,0,2.62.49,3.6,1.49,1.03,1,1.52,2.32,1.52,3.62Z"/>
          <path class="cls-6" d="M591.58,469.88v13.27c0,1.83.68,3.68,2.11,5.07,1.39,1.41,3.2,2.12,5.03,2.12h189.5c1.83,0,3.64-.71,5.02-2.12,1.43-1.39,2.11-3.23,2.11-5.07v-13.27h-203.78Z"/>
          <path class="cls-6" d="M795.36,503.61c0,1.83-.68,3.65-2.11,5.08-1.38,1.37-3.19,2.05-5.02,2.05h-189.5c-1.83,0-3.64-.68-5.03-2.05-1.43-1.43-2.11-3.25-2.11-5.08v-1.03c0-1.8.68-3.68,2.11-5.06,1.39-1.4,3.2-2.09,5.03-2.09h189.5c1.83,0,3.64.69,5.02,2.09,1.43,1.38,2.11,3.26,2.11,5.06v1.03Z"/>
          <path class="cls-6" d="M763.77,264.15c0,1.59-.64,3.17-1.82,4.35-1.2,1.2-2.8,1.8-4.34,1.8h-128.29c-1.56,0-3.14-.6-4.37-1.8-1.16-1.18-1.78-2.76-1.78-4.35v-.88c0-1.55.62-3.17,1.78-4.34,1.23-1.23,2.8-1.8,4.37-1.8h128.29c1.54,0,3.14.57,4.34,1.8,1.19,1.18,1.82,2.8,1.82,4.34v.88h0Z"/>
          <path class="cls-6" d="M726.35,221.68c0-20.63,16.8-37.42,37.43-37.42h-140.6c20.62,0,37.43,16.79,37.43,37.42,0,15.38-8.63,28.76-21.31,35.44h21.31s65.75.01,65.75.01h0s21.31-.01,21.31-.01c-12.68-6.69-21.31-20.06-21.31-35.44Z"/>
          <path class="cls-6" d="M763.77,184.24c-11.77-27.17-38.8-46.17-70.3-46.17s-58.52,19-70.3,46.17h140.6Z"/>
          <path class="cls-6" d="M767.33,431.6c-25.66-30.99-40.98-70.23-40.98-112.83,0-19.01,8.16-36.17,21.31-48.46h-108.38c13.15,12.29,21.31,29.45,21.31,48.46,0,42.61-15.32,81.84-40.98,112.83h147.7Z"/>
          <path class="cls-6" d="M718.72,135.68c0,1.29-.5,2.62-1.52,3.61-.98,1-2.29,1.47-3.6,1.47h-40.21c-1.3,0-2.62-.47-3.6-1.47-1.03-.99-1.54-2.31-1.54-3.61s.51-2.62,1.54-3.62c.98-.98,2.29-1.47,3.6-1.47h40.22c1.32,0,2.62.49,3.6,1.47,1.02.99,1.51,2.31,1.51,3.62Z"/>
          <path class="cls-6" d="M673.38,130.63l20.11-34.83,20.11,34.83h-40.21Z"/>
          <path class="cls-6" d="M673.38,68.26l20.11,34.83,20.11-34.83h-40.21Z"/>
          <path class="cls-6" d="M724.66,119.53l-34.79-20.1,34.79-20.11v40.21Z"/>
          <path class="cls-6" d="M662.33,119.53l34.79-20.1-34.79-20.11v40.21Z"/>
        </g>
      </g>
      <g class="cls-1">
        <g>
          <path class="cls-5" d="M616.65,441.78h147.61c0,15.53,12.6,28.1,28.09,28.1h-203.78c15.48,0,28.08-12.57,28.08-28.1Z"/>
          <path class="cls-5" d="M595.77,490.33h189.42v25.51h-189.42v-25.51Z"/>
          <path class="cls-5" d="M610.16,436.68c0,1.28.49,2.62,1.52,3.6.98.98,2.29,1.48,3.6,1.48h150.39c1.3,0,2.62-.51,3.59-1.48,1.04-.99,1.54-2.32,1.54-3.6s-.5-2.62-1.54-3.62c-.98-1-2.29-1.49-3.59-1.49h-150.39c-1.3,0-2.62.49-3.6,1.49-1.03,1-1.52,2.32-1.52,3.62Z"/>
          <path class="cls-5" d="M792.35,469.88v13.27c0,1.83-.68,3.68-2.11,5.07-1.39,1.41-3.2,2.12-5.03,2.12h-189.5c-1.83,0-3.64-.71-5.02-2.12-1.43-1.39-2.11-3.23-2.11-5.07v-13.27h203.78Z"/>
          <path class="cls-5" d="M588.57,503.61c0,1.83.68,3.65,2.11,5.08,1.38,1.37,3.19,2.05,5.02,2.05h189.5c1.83,0,3.64-.68,5.03-2.05,1.43-1.43,2.11-3.25,2.11-5.08v-1.03c0-1.8-.68-3.68-2.11-5.06-1.39-1.4-3.2-2.09-5.03-2.09h-189.5c-1.83,0-3.64.69-5.02,2.09-1.43,1.38-2.11,3.26-2.11,5.06v1.03Z"/>
          <path class="cls-5" d="M620.16,264.15c0,1.59.64,3.17,1.82,4.35,1.2,1.2,2.8,1.8,4.34,1.8h128.29c1.56,0,3.14-.6,4.37-1.8,1.16-1.18,1.78-2.76,1.78-4.35v-.88c0-1.55-.62-3.17-1.78-4.34-1.23-1.23-2.8-1.8-4.37-1.8h-128.29c-1.54,0-3.14.57-4.34,1.8-1.19,1.18-1.82,2.8-1.82,4.34v.88h0Z"/>
          <path class="cls-5" d="M657.59,221.68c0-20.63-16.8-37.42-37.43-37.42h140.6c-20.63,0-37.43,16.79-37.43,37.42,0,15.38,8.63,28.76,21.32,35.44h-21.32s-65.75.01-65.75.01h0s-21.31-.01-21.31-.01c12.68-6.69,21.31-20.06,21.31-35.44Z"/>
          <path class="cls-5" d="M620.16,184.24c11.77-27.17,38.8-46.17,70.3-46.17s58.52,19,70.3,46.17h-140.6Z"/>
          <path class="cls-5" d="M616.62,431.6c25.66-30.99,40.98-70.23,40.98-112.83,0-19.01-8.16-36.17-21.31-48.46h108.38c-13.15,12.29-21.32,29.45-21.32,48.46,0,42.61,15.32,81.84,40.98,112.83h-147.7Z"/>
          <path class="cls-5" d="M665.23,135.68c0,1.29.5,2.62,1.52,3.61.98,1,2.29,1.47,3.6,1.47h40.21c1.3,0,2.62-.47,3.6-1.47,1.03-.99,1.54-2.31,1.54-3.61s-.51-2.62-1.54-3.62c-.98-.98-2.29-1.47-3.6-1.47h-40.21c-1.32,0-2.62.49-3.6,1.47-1.02.99-1.51,2.31-1.51,3.62Z"/>
          <path class="cls-5" d="M710.58,130.63l-20.11-34.83-20.11,34.83h40.21Z"/>
          <path class="cls-5" d="M710.58,68.26l-20.11,34.83-20.11-34.83h40.21Z"/>
          <path class="cls-5" d="M659.29,119.53l34.79-20.1-34.79-20.11v40.21Z"/>
          <path class="cls-5" d="M721.61,119.53l-34.79-20.1,34.79-20.11v40.21Z"/>
        </g>
      </g>
    </g>
  </g>
  <g>
    <path class="cls-5" d="M950.92,746.81l.29,46.98s-.29,0-.29.29c-5.94,15.29-29.72,48.68-94.81,48.68s-100.76-46.98-101.04-104.72c-.56-57.73,33.68-103.87,100.76-104.15,45.29-.29,80.09,19.53,93.68,51.23,5.38,12.17-3.68,25.76-16.98,26.04h-10.76c10.19-38.49-44.15-74.15-83.78-64.81-45,10.19-59.72,67.93-51.51,105,8.21,36.79,41.61,80.66,90.57,80.38h.28c21.23,0,34.81-18.4,34.81-42.17,0-16.7-11.04-31.42-27.17-36.23l-22.08-6.51h88.02,0Z"/>
    <path class="cls-5" d="M695.27,826.34c19.24,0,41.04-7.64,54.62-21.51v32.55h-156.52l.85-1.41c3.11-4.24,11.04-17.55,11.04-42.74v-110.1c0-31.14-11.89-44.15-11.89-44.15h52.93s-11.89,13.02-11.89,44.15v143.21h60.85Z"/>
    <path class="cls-5" d="M525.07,650.01h-51.23v86.04h43.59c15.56,0,31.13-3.68,45-10.76v32.26-.29c-13.87-6.79-29.15-10.47-44.72-10.47h-43.87l.28,46.42c0,25.19,7.64,38.49,10.76,42.74l1.13,1.41h-53.21l.85-1.41c3.11-4.24,11.04-17.55,11.04-42.74v-110.1c0-31.14-11.89-44.15-11.89-44.15h143.49v32.55c-13.59-13.87-31.98-21.51-51.22-21.51h0Z"/>
  </g>
</svg>